<svg xmlns="http://www.w3.org/2000/svg" viewBox="0 0 64 64" width="64" height="64">
  <!-- Modern minimal frog logo - startup style -->
  
  <!-- Eye bumps at top -->
  <circle cx="20" cy="18" r="12" fill="#5A7D5E"/>
  <circle cx="44" cy="18" r="12" fill="#5A7D5E"/>
  
  <!-- Main face - rounded square feel -->
  <path d="M12 24 C12 24 8 32 8 40 C8 52 18 56 32 56 C46 56 56 52 56 40 C56 32 52 24 52 24 C52 24 48 20 32 20 C16 20 12 24 12 24 Z" fill="#5A7D5E"/>
  
  <!-- Eye whites -->
  <circle cx="20" cy="18" r="7" fill="#FEFEFE"/>
  <circle cx="44" cy="18" r="7" fill="#FEFEFE"/>
  
  <!-- Pupils - looking slightly inward -->
  <circle cx="22" cy="18" r="4" fill="#2A3D2B"/>
  <circle cx="42" cy="18" r="4" fill="#2A3D2B"/>
  
  <!-- Eye shine -->
  <circle cx="20" cy="16" r="1.5" fill="#FFFFFF"/>
  <circle cx="40" cy="16" r="1.5" fill="#FFFFFF"/>
  
  <!-- Subtle happy smile -->
  <path d="M24 44 Q32 50 40 44" stroke="#3D5340" stroke-width="2.5" fill="none" stroke-linecap="round"/>
  
  <!-- Crown - elegant 3-point -->
  <path d="M24 8 L28 2 L32 6 L36 2 L40 8" 
        stroke="#C9A052" 
        stroke-width="2" 
        fill="none" 
        stroke-linecap="round" 
        stroke-linejoin="round"/>
  <circle cx="28" cy="3" r="1.2" fill="#D4B06A"/>
  <circle cx="32" cy="5" r="1.5" fill="#D4B06A"/>
  <circle cx="36" cy="3" r="1.2" fill="#D4B06A"/>
</svg>