<svg xmlns="http://www.w3.org/2000/svg" viewBox="0 0 64 64" width="64" height="64">
  <!-- Crown -->
  <path d="M18 18 L22 8 L28 14 L32 4 L36 14 L42 8 L46 18 Z" fill="#d4a853" stroke="#b8923f" stroke-width="1"/>
  <circle cx="22" cy="10" r="2" fill="#e8c468"/>
  <circle cx="32" cy="6" r="2.5" fill="#e8c468"/>
  <circle cx="42" cy="10" r="2" fill="#e8c468"/>
  
  <!-- Frog Body - fat and round -->
  <ellipse cx="32" cy="40" rx="22" ry="18" fill="#7a9e7e"/>
  <ellipse cx="32" cy="42" rx="18" ry="12" fill="#8fb390"/>
  
  <!-- Head -->
  <ellipse cx="32" cy="28" rx="16" ry="12" fill="#7a9e7e"/>
  
  <!-- Cheeks - puffy -->
  <ellipse cx="20" cy="30" rx="6" ry="5" fill="#8fb390"/>
  <ellipse cx="44" cy="30" rx="6" ry="5" fill="#8fb390"/>
  
  <!-- Eyes - big and friendly -->
  <ellipse cx="24" cy="24" rx="6" ry="7" fill="white"/>
  <ellipse cx="40" cy="24" rx="6" ry="7" fill="white"/>
  <circle cx="25" cy="25" r="3.5" fill="#2d3b2d"/>
  <circle cx="41" cy="25" r="3.5" fill="#2d3b2d"/>
  <circle cx="26" cy="23" r="1.5" fill="white"/>
  <circle cx="42" cy="23" r="1.5" fill="white"/>
  
  <!-- Smile - big friendly grin -->
  <path d="M22 34 Q32 42 42 34" stroke="#4a5f4a" stroke-width="2.5" fill="none" stroke-linecap="round"/>
  
  <!-- Blush -->
  <ellipse cx="18" cy="32" rx="3" ry="2" fill="#c4a89a" opacity="0.5"/>
  <ellipse cx="46" cy="32" rx="3" ry="2" fill="#c4a89a" opacity="0.5"/>
  
  <!-- Front legs/hands -->
  <ellipse cx="18" cy="52" rx="6" ry="4" fill="#6b8c6f"/>
  <ellipse cx="46" cy="52" rx="6" ry="4" fill="#6b8c6f"/>
  
  <!-- Belly highlight -->
  <ellipse cx="32" cy="44" rx="10" ry="6" fill="#a3c4a5" opacity="0.4"/>
</svg>